<svg width="16" height="16" viewBox="0 0 16 16" fill="none" xmlns="http://www.w3.org/2000/svg">
<path fill-rule="evenodd" clip-rule="evenodd" d="M2.62192 6.62201C2.30638 6.93754 2.08325 7.50732 2.08325 8.60001V11.4C2.08325 12.4927 2.30638 13.0625 2.62192 13.378C2.93745 13.6935 3.50722 13.9167 4.59992 13.9167H7.39992C8.49261 13.9167 9.06239 13.6935 9.37792 13.378C9.69345 13.0625 9.91659 12.4927 9.91659 11.4V8.60001C9.91659 7.50732 9.69345 6.93754 9.37792 6.62201C9.06239 6.30648 8.49261 6.08334 7.39992 6.08334H4.59992C3.50722 6.08334 2.93745 6.30648 2.62192 6.62201ZM1.56126 5.56135C2.29572 4.82688 3.35928 4.58334 4.59992 4.58334H7.39992C8.64056 4.58334 9.70411 4.82688 10.4386 5.56135C11.1731 6.29582 11.4166 7.35937 11.4166 8.60001V11.4C11.4166 12.6406 11.1731 13.7042 10.4386 14.4387C9.70411 15.1731 8.64056 15.4167 7.39992 15.4167H4.59992C3.35928 15.4167 2.29572 15.1731 1.56126 14.4387C0.826786 13.7042 0.583252 12.6406 0.583252 11.4V8.60001C0.583252 7.35937 0.826786 6.29582 1.56126 5.56135Z" fill="#5F5E77"/>
<path fill-rule="evenodd" clip-rule="evenodd" d="M6.08327 4.58334H7.39992C8.64056 4.58334 9.70411 4.82688 10.4386 5.56135C11.1731 6.29582 11.4166 7.35937 11.4166 8.60001V9.91666C12.4984 9.9144 13.064 9.69194 13.3779 9.37801C13.6935 9.06248 13.9166 8.49271 13.9166 7.40001V4.60001C13.9166 3.50732 13.6935 2.93754 13.3779 2.62201C13.0624 2.30648 12.4926 2.08334 11.3999 2.08334H8.59992C7.50722 2.08334 6.93745 2.30648 6.62192 2.62201C6.30799 2.93593 6.08553 3.50151 6.08327 4.58334ZM5.56126 1.56135C6.29572 0.826878 7.35928 0.583344 8.59992 0.583344H11.3999C12.6406 0.583344 13.7041 0.826878 14.4386 1.56135C15.1731 2.29582 15.4166 3.35937 15.4166 4.60001V7.40001C15.4166 8.64065 15.1731 9.70421 14.4386 10.4387C13.7041 11.1731 12.6406 11.4167 11.3999 11.4167H10.6666C10.2524 11.4167 9.91659 11.0809 9.91659 10.6667V8.60001C9.91659 7.50732 9.69345 6.93754 9.37792 6.62201C9.06239 6.30648 8.49261 6.08334 7.39992 6.08334H5.33325C4.91904 6.08334 4.58325 5.74756 4.58325 5.33334V4.60001C4.58325 3.35937 4.82679 2.29582 5.56126 1.56135Z" fill="#5F5E77"/>
</svg>
