<svg width="14" height="14" viewBox="0 0 14 14" fill="none" xmlns="http://www.w3.org/2000/svg">
<path d="M7.00033 13.2709C3.54116 13.2709 0.729492 10.4592 0.729492 7.00008C0.729492 3.54091 3.54116 0.729248 7.00033 0.729248C10.4595 0.729248 13.2712 3.54091 13.2712 7.00008C13.2712 10.4592 10.4595 13.2709 7.00033 13.2709ZM7.00033 1.60425C4.02533 1.60425 1.60449 4.02508 1.60449 7.00008C1.60449 9.97508 4.02533 12.3959 7.00033 12.3959C9.97533 12.3959 12.3962 9.97508 12.3962 7.00008C12.3962 4.02508 9.97533 1.60425 7.00033 1.60425Z" fill="#8E8E93"/>
<path d="M7 8.02091C6.76083 8.02091 6.5625 7.82258 6.5625 7.58341V4.66675C6.5625 4.42758 6.76083 4.22925 7 4.22925C7.23917 4.22925 7.4375 4.42758 7.4375 4.66675V7.58341C7.4375 7.82258 7.23917 8.02091 7 8.02091Z" fill="#8E8E93"/>
<path d="M7.00033 9.91668C6.92449 9.91668 6.84866 9.89918 6.77866 9.87001C6.70866 9.84085 6.64449 9.80001 6.58616 9.74751C6.53366 9.68918 6.49283 9.63085 6.46366 9.55501C6.43449 9.48501 6.41699 9.40918 6.41699 9.33335C6.41699 9.25751 6.43449 9.18168 6.46366 9.11168C6.49283 9.04168 6.53366 8.97751 6.58616 8.91918C6.64449 8.86668 6.70866 8.82585 6.77866 8.79668C6.91866 8.73835 7.08199 8.73835 7.22199 8.79668C7.29199 8.82585 7.35616 8.86668 7.41449 8.91918C7.46699 8.97751 7.50783 9.04168 7.53699 9.11168C7.56616 9.18168 7.58366 9.25751 7.58366 9.33335C7.58366 9.40918 7.56616 9.48501 7.53699 9.55501C7.50783 9.63085 7.46699 9.68918 7.41449 9.74751C7.35616 9.80001 7.29199 9.84085 7.22199 9.87001C7.15199 9.89918 7.07616 9.91668 7.00033 9.91668Z" fill="#8E8E93"/>
</svg>
